<svg xmlns="http://www.w3.org/2000/svg" width="19.18" height="14.406" viewBox="0 0 19.18 14.406">
  <metadata><?xpacket begin="﻿" id="W5M0MpCehiHzreSzNTczkc9d"?>
<x:xmpmeta xmlns:x="adobe:ns:meta/" x:xmptk="Adobe XMP Core 5.6-c142 79.160924, 2017/07/13-01:06:39        ">
   <rdf:RDF xmlns:rdf="http://www.w3.org/1999/02/22-rdf-syntax-ns#">
      <rdf:Description rdf:about=""/>
   </rdf:RDF>
</x:xmpmeta>
                                                                                                    
                                                                                                    
                                                                                                    
                                                                                                    
                                                                                                    
                                                                                                    
                                                                                                    
                                                                                                    
                                                                                                    
                                                                                                    
                                                                                                    
                                                                                                    
                                                                                                    
                                                                                                    
                                                                                                    
                                                                                                    
                                                                                                    
                                                                                                    
                                                                                                    
                                                                                                    
                           
<?xpacket end="w"?></metadata>
<defs>
    <style>
      .cls-1 {
        fill: #fff;
        fill-rule: evenodd;
      }
    </style>
  </defs>
  <path id="Icon" class="cls-1" d="M1526.99,53.227a1.113,1.113,0,0,1-.72-0.226l-8.87-8.185V56.023a1.2,1.2,0,0,0,1.2,1.2h16.8a1.2,1.2,0,0,0,1.2-1.2V44.788l-8.88,8.219A2.273,2.273,0,0,1,1526.99,53.227Zm9.61-9.2a1.2,1.2,0,0,0-1.2-1.2h-16.8a1.2,1.2,0,0,0-1.2,1.2l9.59,6.874Zm-5.84,5.592,4.88,6.479-6.27-5c-0.31-.312.21-0.5,0.52-0.816S1530.44,49.3,1530.76,49.615Zm-7.54-.119-4.84,6.605,6.4-4.952c0.31-.313-0.44-0.431-0.76-0.744S1523.53,49.183,1523.22,49.5Z" transform="translate(-1517.41 -42.813)"/>
</svg>
